<svg xmlns="http://www.w3.org/2000/svg" xml:space="preserve" viewBox="0 0 1000 1000">
	<g transform="matrix(25 0 0 25 499.9896 499.9896)">
		<linearGradient id="failed" x1="9.858" x2="38.142" y1="9.858" y2="38.142" gradientUnits="userSpaceOnUse">
			<stop offset="0" stop-color="#f44336"/>
			<stop offset="1" stop-color="#7f0f07"/>
		</linearGradient>
		<path fill="url(#failed)" d="M44 24c0 11.045-8.955 20-20 20S4 35.045 4 24 12.955 4 24 4s20 8.955 20 20z" transform="translate(-24 -24)"/>
	</g>
	<path d="M584.562635 336.726881 335.098127 579.676373c-14.791359 14.791359-14.791359 38.768133 0 53.559492l30.037254 30.037254c14.791359 14.791359 38.768133 14.791359 53.559492 0l246.207-246.207c14.791359-14.791359 14.791359-38.768133 0-53.559492l-26.779746-26.779746c-14.791359-14.791359-38.768133-14.791359-53.559492 0z" opacity=".05" transform="matrix(1.32 0 0 1.32 -160.0104 -160.0104)"/>
	<path d="m371.818301 656.587652-27.253221-29.563779c-11.098254-11.098254-11.098254-29.090304 0-40.169619l246.680475-243.422967c11.098254-11.098254 29.090304-11.098254 40.169619 0l26.779746 26.779746c11.098254 11.098254 11.098254 29.090304 0 40.169619l-246.207 246.207c-11.079315 11.079315-29.071365 11.079315-40.169619 0z" opacity=".07" transform="matrix(1.32 0 0 1.32 -160.0104 -160.0104)"/>
	<path fill="#fff" d="m378.515121 649.883246-28.275927-28.541073c-7.405149-7.405149-7.405149-19.393536 0-26.779746l247.703181-244.445673c7.405149-7.405149 19.393536-7.405149 26.779746 0l26.779746 26.779746c7.405149 7.405149 7.405149 19.393536 0 26.779746l-246.207 246.207c-7.38621 7.405149-19.393536 7.405149-26.779746 0z" transform="matrix(1.32 0 0 1.32 -160.0104 -160.0104)"/>
	<path d="M32.172 16.172 19 29c-.781.781-.781 2.047 0 2.828l1.586 1.586c.781.781 2.047.781 2.828 0l13-13c.781-.781.781-2.047 0-2.828L35 16.172c-.781-.781-2.047-.781-2.828 0z" opacity=".05" transform="scale(25) rotate(90 26.25 18.543)"/>
	<path d="M20.939 33.061 19.5 31.5c-.586-.586-.586-1.536 0-2.121l13.025-12.853c.586-.586 1.536-.586 2.121 0l1.414 1.414c.586.586.586 1.536 0 2.121l-13 13c-.585.585-1.535.585-2.121 0z" opacity=".07" transform="matrix(0 25 -25 0 1119.80103959 -192.6743544)"/>
	<path fill="#fff" d="M21.293 32.707 19.8 31.2c-.391-.391-.391-1.024 0-1.414l13.079-12.907c.391-.391 1.024-.391 1.414 0l1.414 1.414c.391.391.391 1.024 0 1.414l-13 13c-.39.391-1.024.391-1.414 0z" transform="matrix(0 25 -25 0 1119.80170764 -192.68440818)"/>
</svg>
