<svg xmlns="http://www.w3.org/2000/svg" xml:space="preserve" viewBox="0 0 1000 1000">
	<g transform="matrix(25 0 0 25 500 500)">
		<linearGradient id="loaded" x1="9.858" x2="38.142" y1="9.858" y2="38.142" gradientUnits="userSpaceOnUse">
			<stop offset="0" stop-color="#21ad64"/>
			<stop offset="1" stop-color="#0f4e2d"/>
		</linearGradient>
		<path fill="url(#loaded)" d="M44 24c0 11.045-8.955 20-20 20S4 35.045 4 24 12.955 4 24 4s20 8.955 20 20z" transform="translate(-24 -24)"/>
	</g>
	<path d="M32.172 16.172 22 26.344l-5.172-5.172c-.781-.781-2.047-.781-2.828 0l-1.414 1.414c-.781.781-.781 2.047 0 2.828l8 8c.781.781 2.047.781 2.828 0l13-13c.781-.781.781-2.047 0-2.828L35 16.172c-.781-.781-2.047-.781-2.828 0z" opacity=".05" transform="matrix(25 0 0 25 -100 -100)"/>
	<path d="m20.939 33.061-8-8c-.586-.586-.586-1.536 0-2.121l1.414-1.414c.586-.586 1.536-.586 2.121 0L22 27.051l10.525-10.525c.586-.586 1.536-.586 2.121 0l1.414 1.414c.586.586.586 1.536 0 2.121l-13 13c-.585.585-1.535.585-2.121 0z" opacity=".07" transform="matrix(25 0 0 25 -100 -100)"/>
	<path fill="#fff" d="m21.293 32.707-8-8c-.391-.391-.391-1.024 0-1.414l1.414-1.414c.391-.391 1.024-.391 1.414 0L22 27.758l10.879-10.879c.391-.391 1.024-.391 1.414 0l1.414 1.414c.391.391.391 1.024 0 1.414l-13 13c-.39.391-1.024.391-1.414 0z" transform="matrix(25 0 0 25 -100 -100)"/>
</svg>
