<svg xmlns="http://www.w3.org/2000/svg" xml:space="preserve" viewBox="0 0 1000 1000">
	<g transform="matrix(25 0 0 25 500.016132 500.016132)">
		<linearGradient id="stopped" x1="9.858" x2="38.142" y1="9.858" y2="38.142" gradientUnits="userSpaceOnUse">
			<stop offset="0" stop-color="#fdd835"/>
			<stop offset="1" stop-color="#886f01"/>
		</linearGradient>
		<path fill="url(#stopped)" d="M44 24c0 11.045-8.955 20-20 20S4 35.045 4 24 12.955 4 24 4s20 8.955 20 20z" transform="translate(-24 -24)"/>
	</g>
	<path d="M32.172 16.172 19 29c-.781.781-.781 2.047 0 2.828l1.586 1.586c.781.781 2.047.781 2.828 0l13-13c.781-.781.781-2.047 0-2.828L35 16.172c-.781-.781-2.047-.781-2.828 0z" opacity=".05" transform="matrix(25 0 0 25 -192.65908966 -119.80919834)"/>
	<path d="M20.939 33.061 19.5 31.5c-.586-.586-.586-1.536 0-2.121l13.025-12.853c.586-.586 1.536-.586 2.121 0l1.414 1.414c.586.586.586 1.536 0 2.121l-13 13c-.585.585-1.535.585-2.121 0z" opacity=".07" transform="matrix(25 0 0 25 -192.65919024 -119.80773834)"/>
	<path fill="#fff" d="M21.293 32.707 19.8 31.2c-.391-.391-.391-1.024 0-1.414l13.079-12.907c.391-.391 1.024-.391 1.414 0l1.414 1.414c.391.391.391 1.024 0 1.414l-13 13c-.39.391-1.024.391-1.414 0z" transform="matrix(25 0 0 25 -192.65919803 -119.80906634)"/>
</svg>
